<?xml version="1.0" standalone="no"?>
<!DOCTYPE svg PUBLIC "-//W3C//DTD SVG 20010904//EN"
 "http://www.w3.org/TR/2001/REC-SVG-20010904/DTD/svg10.dtd">
<svg version="1.0" xmlns="http://www.w3.org/2000/svg"
 width="10165.000000pt" height="9310.000000pt" viewBox="0 0 10165.000000 9310.000000"
 preserveAspectRatio="xMidYMid meet">

<g transform="translate(0.000000,9310.000000) scale(0.100000,-0.100000)"
fill="#000000" stroke="none">
<path d="M20884 91972 c-1367 -1140 -1799 -1505 -2379 -2007 -3138 -2718
-5392 -5019 -7532 -7690 -2365 -2954 -4266 -5902 -5860 -9090 -2376 -4752
-3934 -9806 -4667 -15145 -179 -1303 -339 -2960 -386 -4005 -67 -1515 -67
-4688 1 -6070 38 -788 175 -2274 310 -3375 765 -6254 2558 -12035 5460 -17605
3677 -7058 8835 -13038 15294 -17731 3828 -2782 7930 -4960 12380 -6574 2788
-1011 5978 -1869 8390 -2254 662 -106 1515 -212 2105 -260 2202 -182 9689
-224 12635 -71 2624 137 5751 786 9415 1955 4878 1557 9479 3810 13635 6679
4841 3340 9053 7496 12462 12296 576 811 1192 1738 1726 2597 1679 2698 3143
5632 4306 8625 2024 5213 3173 10654 3415 16178 37 832 41 1054 41 2200 0
1145 -4 1384 -40 2205 -331 7526 -2314 14832 -5873 21640 -2128 4072 -4788
7852 -7795 11080 -1141 1225 -2617 2642 -3867 3714 -956 820 -1670 1382 -4192
3299 l-706 537 -28464 -1 -28463 0 -1351 -1127z m56069 -7799 c144 -136 379
-358 522 -493 2565 -2418 4191 -4106 5795 -6015 816 -970 1739 -2148 2451
-3125 910 -1249 1574 -2281 1574 -2446 0 -168 -372 -241 -1405 -274 -562 -18
-1676 -22 -2760 -11 -591 6 -1649 16 -2350 22 -2910 25 -4477 -32 -6780 -246
-2100 -196 -3494 -365 -5165 -626 -3346 -522 -6671 -1236 -9450 -2031 -2594
-741 -4574 -1396 -6990 -2311 -398 -151 -767 -293 -2020 -777 -5674 -2193
-9764 -3387 -14750 -4304 -3576 -658 -6599 -941 -11805 -1106 -1692 -53 -2515
-70 -3765 -78 -3131 -21 -5870 55 -7135 199 -697 79 -2129 277 -2700 374 -273
47 -264 44 -268 84 -16 159 386 2046 559 2623 630 2108 2688 6515 4392 9404
1242 2106 2621 3939 4517 6004 617 672 1090 1162 1994 2066 824 823 1226 1214
2616 2537 l804 767 10901 3 c5995 1 17663 3 25928 5 l15028 2 262 -247z m5807
-21053 c1922 -17 3349 -46 3970 -80 930 -52 4151 -363 4667 -451 l63 -11 19
-67 c128 -432 788 -3341 935 -4121 127 -674 255 -1586 331 -2370 156 -1607
214 -3339 202 -6020 -7 -1409 -19 -2012 -63 -2915 -92 -1941 -289 -3471 -670
-5225 -1412 -6484 -4339 -12569 -8548 -17770 -1877 -2319 -4007 -4456 -6326
-6346 -3439 -2802 -7280 -5063 -11408 -6715 -2786 -1115 -5539 -1909 -7672
-2213 -1689 -241 -3667 -314 -7710 -287 -3983 27 -5267 62 -6370 172 -1083
108 -2363 352 -3725 710 -2012 530 -4374 1347 -5985 2072 -1656 745 -3707
1797 -4935 2532 -4284 2564 -8172 5912 -11401 9820 -1796 2174 -3401 4548
-4733 7002 -457 844 -946 1827 -1338 2693 -1021 2253 -1825 4558 -2408 6900
-786 3160 -1105 6156 -1105 10355 0 1051 16 1474 57 1578 l16 39 76 -6 c117
-11 424 -49 1181 -147 2309 -300 3139 -384 4505 -454 1190 -61 1756 -70 4360
-70 3458 1 6035 38 7690 110 1382 61 3251 194 4570 326 3537 353 7103 1037
11750 2255 3545 929 6723 1940 10035 3191 212 80 833 318 1380 530 2805 1085
4110 1536 6325 2187 3754 1102 7806 1969 10945 2340 1303 154 4195 365 5835
426 958 35 3403 49 5485 30z"/>
<path d="M47430 41959 c-237 -7 -347 -17 -1010 -90 -2449 -268 -4046 -591
-5940 -1199 -2059 -662 -3635 -1458 -5905 -2984 -1461 -983 -2776 -1951 -3650
-2690 -287 -243 -471 -411 -691 -630 -240 -241 -340 -361 -401 -483 -33 -66
-35 -78 -30 -133 10 -119 130 -319 343 -575 129 -155 615 -644 838 -845 423
-378 865 -743 1431 -1181 3495 -2706 7026 -4454 10763 -5329 2760 -646 5487
-784 8287 -419 2068 270 4152 819 6240 1644 1021 403 1778 761 4776 2257
l1886 941 2609 -1749 c2701 -1811 3734 -2500 4324 -2884 356 -231 658 -420
671 -420 4 0 10 46 13 103 19 309 107 5223 136 7647 29 2307 29 5920 1 7165
-22 948 -48 1470 -82 1643 -16 81 -43 88 -184 47 -374 -109 -1441 -717 -2870
-1635 -1011 -650 -1736 -1139 -3648 -2457 -521 -360 -954 -656 -962 -659 -7
-3 -71 28 -142 69 -285 166 -2096 1149 -2763 1499 -1683 886 -2789 1393 -4240
1943 -1345 510 -2529 845 -3790 1074 -462 84 -1095 179 -1365 205 -891 86
-3592 159 -4645 125z"/>
</g>
</svg>
